<svg class="coffee" viewBox="0 0 126 125" xmlns="http://www.w3.org/2000/svg" xmlns:serif="http://www.serif.com/" fill-rule="evenodd" clip-rule="evenodd" stroke-linejoin="round" stroke-miterlimit="1.41421">
  <g id="tasse-café" serif:id="tasse café">
    <path id="anse" d="M98.523 84.944s24.335 22.396 26.382 28.594c1.822 5.517-5.567 12.486-11.095 10.513-6.239-2.226-27.856-27.478-27.856-27.478l12.569-11.629z" fill="#eaeaea"/>
    <ellipse id="tasse" cx="56.371" cy="55.647" rx="56.371" ry="55.647" fill="#eaeaea"/>
    <ellipse id="coffeeCreme" cx="56.371" cy="55.647" rx="44.756" ry="44.182" fill="#95744f"/>
    <path id="coffee" d="M23.212 39.337c1.837-3.879 8.416-11.892 13.073-15.435 4.223-3.212 11.997-4.793 14.867-5.819 4.146-1.483 2.215 3.02 3.332 3.795 4.398 3.055 6.584.128 7.31-.04 0 0 5.038 7.044 9.864.799 1.048-1.356 3.884-.019 5.382 1.012 2.82 1.94 11.205 8.16 13.842 12.652 3.118 5.314 6.141 11.903 4.87 19.23-.522 3.012-.47 6.242-1.025 9.11-.534 2.753-5.205 2.886-2.307 8.097 1.665 2.994-4.536 7.123-7.69 9.868-3.247 2.825-8.349 9.473-11.791 7.085-6.229-4.322-10.111-1.637-11.278 3.036-.573 2.295-4.796-.01-7.177-.253-2.478-.253-5.81-.169-7.69-1.265-1.856-1.083.696-4.759-3.588-5.314-1.648-.213-3.674 1.223-5.383 1.012-1.709-.21-3.888-1.223-4.87-2.277-.954-1.024-.745-4.929-.862-6.316-.024-.284-.441-.438-.555-.854-1.584-5.772-5.15-2.504-6.529-3.963-1.795-1.898-2.435-6.41-3.589-9.362-1.09-2.792-3.546-6.621-3.332-8.351.204-1.649 3.544-.741 4.614-2.024 1.196-1.434 2.522-.958 3.845-6.832.487-2.164.171-3.462-.433-4.316-1.236-1.747-3.678-1.631-2.9-3.275z" fill="#43291a"/>
  </g>
</svg>
