<svg class="crayon" viewBox="0 0 684 686" xmlns="http://www.w3.org/2000/svg" fill-rule="evenodd" clip-rule="evenodd" stroke-linejoin="round" stroke-miterlimit="1.4142">
  <path d="M648.842 5.665l16.667 8.333 14.583 17.709L64.467 648.373 0 685.824l37.41-65.263L648.842 5.665l-48.164 48.437" fill="#019935"/>
  <path d="M64.683 648.579l-27.459-27.76L0 685.824l64.683-37.245z" fill="#ffe0b2"/>
  <path d="M21.39 673.846s-3.071-3.568-4.792-4.801c-1.665-1.193-5.532-2.595-5.532-2.595L0 685.824" fill="#1a1a1a"/>
  <path d="M602.454 52.418s6.401 13.316 10.989 18.194c4.545 4.834 16.537 11.079 16.537 11.079s43.981-43.254 51.773-51.992c8.876-9.954-18.568-36.73-28.617-27.962-8.848 7.719-50.682 50.681-50.682 50.681" fill="#ffbbd0"/>
</svg>
