<svg class="ordiSet" viewBox="0 0 867 681" xmlns="http://www.w3.org/2000/svg" xmlns:serif="http://www.serif.com/" fill-rule="evenodd" clip-rule="evenodd" stroke-linecap="round" stroke-linejoin="round" stroke-miterlimit="1.5">
  <g id="Ordinateur">
    <path id="pied" d="M533.12 208.004s10.235 66.807 8.412 80.758c-1.105 8.456-9.172 17.741-17.666 18.507-32.667 2.944-145.322 2.734-178.341-.841-9.464-1.025-18.31-11.203-19.769-20.611-2.173-14.02 10.936-80.337 10.936-80.337l196.428 2.524z" fill="#f0e8e8"/>
    <path d="M332.486 212.594l83.803 96.583s88.746 1.603 109.807-1.963c8.539-1.446 15.945-11.844 16.698-20.921 1.354-16.325-8.575-77.028-8.575-77.028l-201.733 3.329z" fill="#b4aeae" fill-opacity=".176"/>
    <path d="M.973 17.074s-2.541-2.76.589-11.188C2.396 3.64 6.569.679 8.965.67 151.203.18 713.216-.311 855.664.25c2.948.011 6.385 1.314 7.992 3.785 1.823 2.804 2.944 13.039 2.944 13.039H.973zM94.392 182.96s13.114 24.491 17.277 28.544c4.162 4.052 7.792 9.915 13.67 9.989 104.168 1.315 507.981.679 612.916-.526 7.205-.082 9.77-2.344 14.59-6.177 4.679-3.723 17.461-31.189 17.461-31.189l-675.914-.641z" fill="#f0e8e8"/>
    <path id="ecranNoir" d="M3.544 12.947C146.597 10.756 718.92 9.77 862.52 11.632c4.254.055 4.637 8.737 2.629 12.487-16.54 30.889-100.522 173.184-100.522 173.184l-662.501-.994S18.478 52.753 2.048 22.192c-1.87-3.478-2.453-9.185 1.496-9.245z" fill="#2c1212" stroke="#000" stroke-width="1.04"/>
  </g>
  <g id="Clavier">
    <path id="fondClavier" d="M765.581 452.352a4.233 4.233 0 0 0-3.615-4.765L346.48 390.578a4.23 4.23 0 0 0-4.765 3.615l-16.363 119.25a4.231 4.231 0 0 0 3.615 4.765l415.486 57.01a4.231 4.231 0 0 0 4.765-3.615l16.363-119.251z" fill="#c6c6c6"/>
    <g id="touche-fn" serif:id="touche fn" fill="#1b1b1b">
      <path d="M658.138 446.118a.624.624 0 0 0-.533-.703l-16.982-2.33a.623.623 0 0 0-.702.533l-1.248 9.097a.624.624 0 0 0 .532.703l16.982 2.33a.624.624 0 0 0 .703-.533l1.248-9.097zM636.394 443.134a.623.623 0 0 0-.532-.702l-16.982-2.33a.624.624 0 0 0-.703.533l-1.248 9.097a.623.623 0 0 0 .533.702l16.982 2.33a.623.623 0 0 0 .702-.533l1.248-9.097zM614.651 440.151a.624.624 0 0 0-.533-.703l-16.982-2.33a.623.623 0 0 0-.702.533l-1.249 9.097a.624.624 0 0 0 .533.703l16.982 2.33a.623.623 0 0 0 .702-.533l1.249-9.097zM592.907 437.167a.623.623 0 0 0-.533-.702l-16.982-2.33a.623.623 0 0 0-.702.533l-1.248 9.097a.623.623 0 0 0 .532.702l16.982 2.33a.624.624 0 0 0 .703-.533l1.248-9.097zM571.559 434.238a.623.623 0 0 0-.533-.702l-16.982-2.331a.623.623 0 0 0-.702.533l-1.249 9.098a.623.623 0 0 0 .533.702l16.982 2.33a.623.623 0 0 0 .702-.533l1.249-9.097zM549.815 431.254a.624.624 0 0 0-.533-.702l-16.982-2.33a.623.623 0 0 0-.702.533l-1.248 9.097a.624.624 0 0 0 .532.703l16.982 2.33a.625.625 0 0 0 .703-.533l1.248-9.098zM528.071 428.271a.623.623 0 0 0-.532-.702l-16.982-2.331a.625.625 0 0 0-.703.533l-1.248 9.098a.623.623 0 0 0 .533.702l16.982 2.33a.623.623 0 0 0 .702-.533l1.248-9.097zM506.328 425.287a.624.624 0 0 0-.533-.702l-16.982-2.33a.623.623 0 0 0-.702.533l-1.249 9.097a.625.625 0 0 0 .533.703l16.982 2.33a.625.625 0 0 0 .703-.533l1.248-9.098zM484.979 422.358a.623.623 0 0 0-.532-.702l-16.982-2.33a.624.624 0 0 0-.703.533l-1.248 9.097a.623.623 0 0 0 .533.702l16.982 2.33a.623.623 0 0 0 .702-.532l1.248-9.098zM463.236 419.375a.624.624 0 0 0-.533-.703l-16.982-2.33a.623.623 0 0 0-.702.533l-1.249 9.097a.625.625 0 0 0 .533.703l16.982 2.33a.624.624 0 0 0 .703-.533l1.248-9.097zM441.492 416.391a.623.623 0 0 0-.533-.702l-16.982-2.33a.623.623 0 0 0-.702.533l-1.248 9.097a.623.623 0 0 0 .533.702l16.981 2.33a.624.624 0 0 0 .703-.532l1.248-9.098zM419.748 413.408a.624.624 0 0 0-.532-.703l-16.982-2.33a.624.624 0 0 0-.703.533l-1.248 9.097a.624.624 0 0 0 .533.703l16.982 2.33a.623.623 0 0 0 .702-.533l1.248-9.097zM397.72 410.385a.623.623 0 0 0-.533-.702l-16.982-2.33a.623.623 0 0 0-.702.533l-1.248 9.097a.623.623 0 0 0 .533.702l16.982 2.33a.624.624 0 0 0 .702-.532l1.248-9.098zM375.976 407.402a.624.624 0 0 0-.532-.703l-16.982-2.33a.624.624 0 0 0-.703.533l-1.248 9.097a.624.624 0 0 0 .533.703l16.982 2.33a.623.623 0 0 0 .702-.533l1.248-9.097z"/>
    </g>
    <g id="fleche" fill="#1b1b1b">
      <path d="M645.25 534.406a.952.952 0 0 0-.814-1.073l-16.329-2.241a.955.955 0 0 0-1.074.815l-1.907 13.9a.953.953 0 0 0 .814 1.074l16.33 2.24a.952.952 0 0 0 1.073-.814l1.907-13.901zM602.339 528.518a.952.952 0 0 0-.814-1.073l-16.33-2.241a.954.954 0 0 0-1.073.815l-1.907 13.9a.953.953 0 0 0 .814 1.074l16.33 2.24a.952.952 0 0 0 1.073-.814l1.907-13.901zM624.069 530.965a.423.423 0 0 0-.361-.476l-17.38-2.385a.423.423 0 0 0-.476.361l-.846 6.166a.423.423 0 0 0 .361.476l17.38 2.385a.424.424 0 0 0 .476-.362l.846-6.165zM622.864 539.75a.424.424 0 0 0-.362-.476l-17.38-2.384a.423.423 0 0 0-.476.361l-.846 6.165a.423.423 0 0 0 .362.476l17.38 2.385a.423.423 0 0 0 .476-.361l.846-6.166z"/>
    </g>
    <g id="toucheAltCTRLWindows" fill="#1b1b1b">
      <path d="M579.112 525.331a.952.952 0 0 0-.814-1.073l-16.33-2.241a.954.954 0 0 0-1.073.815l-1.907 13.9a.953.953 0 0 0 .814 1.074l16.33 2.24a.952.952 0 0 0 1.073-.814l1.907-13.901zM555.885 522.144a.952.952 0 0 0-.814-1.073l-16.33-2.241a.954.954 0 0 0-1.073.815l-1.907 13.9a.953.953 0 0 0 .814 1.074l16.33 2.24a.952.952 0 0 0 1.073-.814l1.907-13.901zM424.293 504.733a.954.954 0 0 0-.814-1.074l-16.33-2.24a.952.952 0 0 0-1.073.814l-1.908 13.901a.953.953 0 0 0 .815 1.073l16.329 2.241a.955.955 0 0 0 1.074-.815l1.907-13.9zM403.723 501.91a.953.953 0 0 0-.815-1.073l-16.329-2.241a.955.955 0 0 0-1.074.815l-1.907 13.9a.954.954 0 0 0 .814 1.074l16.33 2.24a.952.952 0 0 0 1.073-.814l1.908-13.901zM382.198 498.957a.952.952 0 0 0-.814-1.073l-16.33-2.241a.953.953 0 0 0-1.073.814l-1.907 13.901a.952.952 0 0 0 .814 1.073l16.33 2.241a.953.953 0 0 0 1.073-.814l1.907-13.901zM360.698 495.813a.954.954 0 0 0-.814-1.073l-16.33-2.241a.953.953 0 0 0-1.073.815l-1.908 13.9a.955.955 0 0 0 .815 1.074l16.329 2.24a.952.952 0 0 0 1.073-.814l1.908-13.901z"/>
    </g>
    <g id="toucheClavier" fill="#1b1b1b">
      <path d="M427.565 486.389a.953.953 0 0 0-.814-1.073l-16.33-2.24a.952.952 0 0 0-1.073.814l-1.908 13.901a.954.954 0 0 0 .815 1.073l16.329 2.24a.953.953 0 0 0 1.074-.814l1.907-13.901zM406.995 483.567a.953.953 0 0 0-.814-1.073l-16.33-2.241a.953.953 0 0 0-1.073.814l-1.908 13.901a.953.953 0 0 0 .814 1.073l16.33 2.241a.953.953 0 0 0 1.073-.814l1.908-13.901zM384.729 480.512a.952.952 0 0 0-.814-1.073l-16.33-2.241a.953.953 0 0 0-1.073.814l-1.907 13.901a.952.952 0 0 0 .814 1.073l16.33 2.241a.953.953 0 0 0 1.073-.814l1.907-13.901zM412.568 465.624a.952.952 0 0 0-.814-1.073l-16.33-2.241a.953.953 0 0 0-1.073.814l-1.907 13.901a.952.952 0 0 0 .814 1.073l16.33 2.241a.952.952 0 0 0 1.073-.814l1.907-13.901zM363.97 477.47a.953.953 0 0 0-.814-1.073l-16.33-2.241a.953.953 0 0 0-1.073.815l-1.908 13.9a.955.955 0 0 0 .815 1.074l16.329 2.24a.953.953 0 0 0 1.074-.814l1.907-13.901zM471.105 491.719a.952.952 0 0 0-.814-1.073l-16.33-2.241a.954.954 0 0 0-1.073.815l-1.907 13.9a.953.953 0 0 0 .814 1.074l16.33 2.24a.952.952 0 0 0 1.073-.814l1.907-13.901zM448.833 488.663a.952.952 0 0 0-.814-1.073l-16.33-2.241a.953.953 0 0 0-1.073.815l-1.907 13.9a.953.953 0 0 0 .814 1.074l16.33 2.24a.953.953 0 0 0 1.073-.814l1.907-13.901zM604.739 510.055a.953.953 0 0 0-.814-1.073l-16.33-2.24a.952.952 0 0 0-1.073.814l-1.907 13.901a.953.953 0 0 0 .814 1.073l16.33 2.24a.953.953 0 0 0 1.073-.814l1.907-13.901zM582.467 506.999a.954.954 0 0 0-.814-1.073l-16.33-2.24a.952.952 0 0 0-1.073.814l-1.908 13.901a.954.954 0 0 0 .815 1.073l16.329 2.24a.953.953 0 0 0 1.074-.814l1.907-13.901zM560.195 503.943a.954.954 0 0 0-.815-1.073l-16.329-2.24a.953.953 0 0 0-1.074.814l-1.907 13.901a.954.954 0 0 0 .814 1.073l16.33 2.24a.952.952 0 0 0 1.073-.814l1.908-13.901zM537.922 500.887a.952.952 0 0 0-.814-1.073l-16.33-2.241a.954.954 0 0 0-1.073.815l-1.907 13.9a.953.953 0 0 0 .814 1.074l16.33 2.24a.952.952 0 0 0 1.073-.814l1.907-13.901zM515.65 497.831a.953.953 0 0 0-.814-1.073l-16.33-2.241a.953.953 0 0 0-1.073.815l-1.908 13.9a.955.955 0 0 0 .815 1.074l16.329 2.24a.953.953 0 0 0 1.074-.814l1.907-13.901zM493.378 494.775a.954.954 0 0 0-.815-1.073l-16.329-2.241a.955.955 0 0 0-1.074.815l-1.907 13.9a.955.955 0 0 0 .814 1.074l16.33 2.24a.952.952 0 0 0 1.073-.814l1.908-13.901zM498.765 477.065a.953.953 0 0 0-.814-1.074l-16.33-2.24a.953.953 0 0 0-1.073.814l-1.907 13.901a.952.952 0 0 0 .814 1.073l16.33 2.241a.953.953 0 0 0 1.073-.815l1.907-13.9zM476.493 474.009a.953.953 0 0 0-.814-1.074l-16.33-2.24a.952.952 0 0 0-1.073.814l-1.907 13.901a.952.952 0 0 0 .814 1.073l16.33 2.241a.954.954 0 0 0 1.073-.815l1.907-13.9zM454.43 470.981a.953.953 0 0 0-.814-1.073l-16.33-2.241a.953.953 0 0 0-1.073.815l-1.908 13.9a.955.955 0 0 0 .815 1.074l16.329 2.24a.953.953 0 0 0 1.074-.814l1.907-13.901zM432.772 468.01a.955.955 0 0 0-.815-1.074l-16.329-2.24a.952.952 0 0 0-1.073.814l-1.908 13.901a.954.954 0 0 0 .814 1.073l16.33 2.241a.953.953 0 0 0 1.073-.815l1.908-13.9zM632.399 495.401a.952.952 0 0 0-.814-1.073l-16.33-2.241a.952.952 0 0 0-1.073.814l-1.907 13.901a.952.952 0 0 0 .814 1.073l16.33 2.241a.954.954 0 0 0 1.073-.814l1.907-13.901zM610.127 492.345a.953.953 0 0 0-.814-1.073l-16.33-2.241a.952.952 0 0 0-1.073.814l-1.908 13.901a.953.953 0 0 0 .815 1.073l16.329 2.241a.955.955 0 0 0 1.074-.814l1.907-13.901zM587.855 489.289a.953.953 0 0 0-.815-1.073l-16.329-2.241a.953.953 0 0 0-1.074.814l-1.907 13.901a.953.953 0 0 0 .814 1.073l16.33 2.241a.953.953 0 0 0 1.073-.814l1.908-13.901zM565.582 486.233a.952.952 0 0 0-.814-1.073l-16.33-2.241a.952.952 0 0 0-1.073.814l-1.907 13.901a.952.952 0 0 0 .814 1.073l16.33 2.241a.954.954 0 0 0 1.073-.814l1.907-13.901zM543.31 483.177a.953.953 0 0 0-.814-1.073l-16.33-2.241a.952.952 0 0 0-1.073.814l-1.908 13.901a.953.953 0 0 0 .815 1.073l16.329 2.241a.955.955 0 0 0 1.074-.815l1.907-13.9zM521.038 480.121a.955.955 0 0 0-.815-1.074l-16.329-2.24a.953.953 0 0 0-1.074.814l-1.907 13.901a.953.953 0 0 0 .814 1.073l16.33 2.241a.953.953 0 0 0 1.073-.815l1.908-13.9zM405.126 445.654a.953.953 0 0 0-.814-1.073l-16.33-2.241a.953.953 0 0 0-1.073.815l-1.908 13.9a.955.955 0 0 0 .815 1.074l16.329 2.24a.953.953 0 0 0 1.074-.814l1.907-13.901zM383.349 442.666a.953.953 0 0 0-.815-1.073l-30.536-4.19a.953.953 0 0 0-1.073.814l-1.908 13.901a.953.953 0 0 0 .815 1.073l30.536 4.19a.952.952 0 0 0 1.073-.814l1.908-13.901zM378.188 422.641a.955.955 0 0 0-.814-1.074l-21.84-2.996a.953.953 0 0 0-1.073.814l-1.907 13.901a.952.952 0 0 0 .814 1.073l21.839 2.997a.955.955 0 0 0 1.074-.815l1.907-13.9zM656.179 459.303a.952.952 0 0 0-.814-1.073l-30.537-4.19a.952.952 0 0 0-1.073.814l-1.907 13.901a.953.953 0 0 0 .814 1.073l30.537 4.19a.954.954 0 0 0 1.073-.814l1.907-13.901zM491.323 457.095a.952.952 0 0 0-.814-1.073l-16.33-2.241a.953.953 0 0 0-1.073.814l-1.907 13.901a.952.952 0 0 0 .814 1.073l16.33 2.241a.954.954 0 0 0 1.073-.814l1.907-13.901zM469.051 454.039a.953.953 0 0 0-.814-1.073l-16.33-2.241a.953.953 0 0 0-1.073.814l-1.908 13.901a.953.953 0 0 0 .815 1.073l16.329 2.241a.954.954 0 0 0 1.074-.814l1.907-13.901zM446.988 451.012a.955.955 0 0 0-.814-1.074l-16.33-2.24a.952.952 0 0 0-1.073.814l-1.908 13.901a.953.953 0 0 0 .814 1.073l16.33 2.241a.953.953 0 0 0 1.073-.815l1.908-13.9zM425.329 448.04a.952.952 0 0 0-.814-1.073l-16.33-2.241a.954.954 0 0 0-1.073.814l-1.907 13.901a.952.952 0 0 0 .814 1.073l16.33 2.241a.953.953 0 0 0 1.073-.814l1.907-13.901zM624.957 475.431a.953.953 0 0 0-.814-1.073l-16.33-2.241a.953.953 0 0 0-1.073.814l-1.908 13.901a.953.953 0 0 0 .815 1.073l16.329 2.241a.953.953 0 0 0 1.074-.814l1.907-13.901zM602.685 472.375a.953.953 0 0 0-.815-1.073l-16.329-2.241a.955.955 0 0 0-1.074.814l-1.907 13.901a.953.953 0 0 0 .814 1.073l16.33 2.241a.952.952 0 0 0 1.073-.814l1.908-13.901zM580.412 469.319a.952.952 0 0 0-.814-1.073l-16.33-2.241a.954.954 0 0 0-1.073.814l-1.907 13.901a.952.952 0 0 0 .814 1.073l16.33 2.241a.952.952 0 0 0 1.073-.814l1.907-13.901zM558.14 466.263a.953.953 0 0 0-.814-1.073l-16.33-2.241a.953.953 0 0 0-1.073.814l-1.908 13.901a.953.953 0 0 0 .815 1.073l16.329 2.241a.953.953 0 0 0 1.074-.814l1.907-13.901zM535.868 463.207a.953.953 0 0 0-.815-1.073l-16.329-2.241a.953.953 0 0 0-1.073.814l-1.908 13.901a.953.953 0 0 0 .814 1.073l16.33 2.241a.953.953 0 0 0 1.073-.814l1.908-13.901zM513.595 460.151a.952.952 0 0 0-.814-1.073l-16.33-2.241a.954.954 0 0 0-1.073.814l-1.907 13.901a.952.952 0 0 0 .814 1.073l16.33 2.241a.953.953 0 0 0 1.073-.814l1.907-13.901zM399.769 425.989a.955.955 0 0 0-.815-1.074l-16.329-2.24a.952.952 0 0 0-1.073.814l-1.908 13.901a.954.954 0 0 0 .814 1.073l16.33 2.241a.953.953 0 0 0 1.073-.815l1.908-13.9zM485.966 437.429a.953.953 0 0 0-.814-1.073l-16.33-2.241a.953.953 0 0 0-1.073.814l-1.908 13.901a.953.953 0 0 0 .815 1.073l16.329 2.241a.953.953 0 0 0 1.074-.814l1.907-13.901zM463.694 434.373a.953.953 0 0 0-.815-1.073l-16.329-2.241a.955.955 0 0 0-1.074.814l-1.907 13.901a.953.953 0 0 0 .814 1.073l16.33 2.241a.952.952 0 0 0 1.073-.814l1.908-13.901zM441.63 431.346a.952.952 0 0 0-.814-1.073l-16.329-2.241a.953.953 0 0 0-1.074.814l-1.907 13.901a.952.952 0 0 0 .814 1.073l16.33 2.241a.953.953 0 0 0 1.073-.814l1.907-13.901zM419.972 428.374a.952.952 0 0 0-.814-1.073l-16.33-2.241a.953.953 0 0 0-1.073.814l-1.907 13.901a.952.952 0 0 0 .814 1.073l16.33 2.241a.954.954 0 0 0 1.073-.814l1.907-13.901zM619.6 455.765a.953.953 0 0 0-.815-1.073l-16.329-2.241a.955.955 0 0 0-1.074.815l-1.907 13.9a.954.954 0 0 0 .814 1.074l16.33 2.24a.952.952 0 0 0 1.073-.814l1.908-13.901zM597.327 452.709a.952.952 0 0 0-.814-1.073l-16.33-2.241a.954.954 0 0 0-1.073.815l-1.907 13.9a.953.953 0 0 0 .814 1.074l16.33 2.24a.952.952 0 0 0 1.073-.814l1.907-13.901zM575.055 449.653a.952.952 0 0 0-.814-1.073l-16.33-2.241a.953.953 0 0 0-1.073.815l-1.908 13.9a.955.955 0 0 0 .815 1.074l16.329 2.24a.953.953 0 0 0 1.074-.814l1.907-13.901zM552.783 446.597a.953.953 0 0 0-.814-1.073l-16.33-2.241a.953.953 0 0 0-1.073.815l-1.908 13.9a.955.955 0 0 0 .814 1.074l16.33 2.24a.952.952 0 0 0 1.073-.814l1.908-13.901zM530.51 443.541a.952.952 0 0 0-.814-1.073l-16.33-2.241a.954.954 0 0 0-1.073.815l-1.907 13.9a.953.953 0 0 0 .814 1.074l16.33 2.24a.952.952 0 0 0 1.073-.814l1.907-13.901zM508.238 440.485a.952.952 0 0 0-.814-1.073l-16.33-2.241a.953.953 0 0 0-1.073.815l-1.907 13.9a.953.953 0 0 0 .814 1.074l16.33 2.24a.953.953 0 0 0 1.073-.814l1.907-13.901z"/>
    </g>
    <path id="toucheMajverouille" d="M389.526 462.462a.954.954 0 0 0-.814-1.073l-39.393-5.405a.954.954 0 0 0-1.073.814l-1.907 13.901a.952.952 0 0 0 .814 1.073l39.392 5.405a.953.953 0 0 0 1.074-.814l1.907-13.901z" fill="#1b1b1b"/>
    <path id="barreSpace" d="M532.658 518.957a.952.952 0 0 0-.814-1.073l-102.686-14.09a.954.954 0 0 0-1.073.815l-1.907 13.9a.953.953 0 0 0 .814 1.074l102.686 14.089a.952.952 0 0 0 1.073-.814l1.907-13.901z" fill="#1b1b1b"/>
    <path id="toucheMajDroite" d="M647.765 516.078a.953.953 0 0 0-.814-1.074l-37.583-5.157a.953.953 0 0 0-1.073.815l-1.908 13.9a.955.955 0 0 0 .815 1.074l37.583 5.157a.953.953 0 0 0 1.073-.815l1.907-13.9z" fill="#1b1b1b"/>
    <g id="paveNum" fill="#1b1b1b">
      <path d="M738.772 527.744a1.1 1.1 0 0 0-.939-1.239l-16.039-2.201a1.101 1.101 0 0 0-1.239.94l-4.513 32.89a1.101 1.101 0 0 0 .94 1.239l16.039 2.2a1.098 1.098 0 0 0 1.238-.939l4.513-32.89zM743.936 490.115a1.101 1.101 0 0 0-.94-1.239l-16.039-2.2a1.1 1.1 0 0 0-1.239.939l-4.513 32.89a1.101 1.101 0 0 0 .94 1.239l16.039 2.201a1.101 1.101 0 0 0 1.239-.94l4.513-32.89zM746.473 471.621a.953.953 0 0 0-.814-1.074l-16.33-2.24a.952.952 0 0 0-1.073.814l-1.907 13.901a.952.952 0 0 0 .814 1.073l16.33 2.241a.954.954 0 0 0 1.073-.815l1.907-13.9zM724.657 468.627a.952.952 0 0 0-.814-1.073l-16.33-2.241a.954.954 0 0 0-1.073.815l-1.907 13.9a.953.953 0 0 0 .814 1.074l16.33 2.24a.952.952 0 0 0 1.073-.814l1.907-13.901zM702.842 465.634a.953.953 0 0 0-.815-1.073l-16.329-2.241a.954.954 0 0 0-1.074.814l-1.907 13.901a.952.952 0 0 0 .814 1.073l16.33 2.241a.953.953 0 0 0 1.073-.814l1.908-13.901zM681.026 462.641a.955.955 0 0 0-.815-1.074l-16.329-2.24a.953.953 0 0 0-1.074.814l-1.907 13.901a.954.954 0 0 0 .814 1.073l16.33 2.241a.953.953 0 0 0 1.073-.815l1.908-13.9zM722.132 487.034a.954.954 0 0 0-.815-1.073l-16.329-2.241a.955.955 0 0 0-1.074.815l-1.907 13.9a.954.954 0 0 0 .814 1.074l16.33 2.24a.952.952 0 0 0 1.073-.814l1.908-13.901zM700.316 484.041a.953.953 0 0 0-.814-1.073l-16.33-2.241a.953.953 0 0 0-1.073.814l-1.908 13.901a.953.953 0 0 0 .815 1.073l16.329 2.241a.954.954 0 0 0 1.074-.814l1.907-13.901zM678.5 481.048a.953.953 0 0 0-.814-1.074l-16.33-2.24a.952.952 0 0 0-1.073.814l-1.908 13.901a.954.954 0 0 0 .815 1.073l16.329 2.241a.955.955 0 0 0 1.074-.815l1.907-13.9zM719.45 506.58a.953.953 0 0 0-.814-1.073l-16.33-2.241a.953.953 0 0 0-1.073.814l-1.908 13.901a.953.953 0 0 0 .814 1.073l16.33 2.241a.953.953 0 0 0 1.073-.814l1.908-13.901zM697.634 503.587a.954.954 0 0 0-.814-1.074l-16.33-2.24a.952.952 0 0 0-1.073.814l-1.908 13.901a.954.954 0 0 0 .815 1.073l16.329 2.241a.955.955 0 0 0 1.074-.815l1.907-13.9zM675.818 500.593a.952.952 0 0 0-.814-1.073l-16.33-2.241a.953.953 0 0 0-1.073.814l-1.907 13.901a.952.952 0 0 0 .814 1.073l16.33 2.241a.953.953 0 0 0 1.073-.814l1.907-13.901zM716.846 525.556a.953.953 0 0 0-.814-1.073l-16.33-2.241a.953.953 0 0 0-1.073.815l-1.908 13.9a.955.955 0 0 0 .815 1.074l16.329 2.24a.953.953 0 0 0 1.074-.814l1.907-13.901zM695.03 522.563a.952.952 0 0 0-.814-1.073l-16.33-2.241a.952.952 0 0 0-1.073.814l-1.907 13.901a.952.952 0 0 0 .814 1.073l16.33 2.241a.954.954 0 0 0 1.073-.814l1.907-13.901zM673.214 519.569a.953.953 0 0 0-.814-1.073l-16.33-2.24a.953.953 0 0 0-1.073.814l-1.907 13.901a.953.953 0 0 0 .814 1.073l16.33 2.24a.952.952 0 0 0 1.073-.814l1.907-13.901zM714.372 543.584a.953.953 0 0 0-.814-1.074l-16.33-2.24a.953.953 0 0 0-1.073.814l-1.907 13.901a.952.952 0 0 0 .814 1.073l16.33 2.241a.953.953 0 0 0 1.073-.815l1.907-13.9zM692.601 540.596a.953.953 0 0 0-.814-1.073l-38.19-5.24a.953.953 0 0 0-1.073.814l-1.908 13.901a.953.953 0 0 0 .814 1.073l38.191 5.24a.952.952 0 0 0 1.073-.814l1.907-13.901zM748.275 458.486a.624.624 0 0 0-.532-.703l-16.982-2.33a.624.624 0 0 0-.703.533l-1.248 9.097a.624.624 0 0 0 .533.703l16.982 2.33a.623.623 0 0 0 .702-.533l1.248-9.097zM726.532 455.502a.623.623 0 0 0-.533-.702l-16.982-2.33a.623.623 0 0 0-.702.532l-1.249 9.098a.624.624 0 0 0 .533.702l16.982 2.33a.624.624 0 0 0 .703-.533l1.248-9.097zM704.788 452.519a.624.624 0 0 0-.533-.703l-16.982-2.33a.623.623 0 0 0-.702.533l-1.248 9.097a.624.624 0 0 0 .533.703l16.982 2.33a.624.624 0 0 0 .702-.533l1.248-9.097zM683.044 449.535a.623.623 0 0 0-.532-.702l-16.982-2.33a.624.624 0 0 0-.703.532l-1.248 9.098a.623.623 0 0 0 .533.702l16.982 2.33a.623.623 0 0 0 .702-.533l1.248-9.097z"/>
    </g>
    <g id="toucheEnter" fill="#1b1b1b">
      <path d="M652.9 478.66a.977.977 0 0 0-.836-1.1l-14.257-1.957a.978.978 0 0 0-1.101.835l-4.546 33.133a.977.977 0 0 0 .835 1.1l14.258 1.957a.977.977 0 0 0 1.1-.835l4.547-33.133z"/>
      <path d="M652.882 478.693a.953.953 0 0 0-.814-1.074l-22.657-3.109a.955.955 0 0 0-1.074.815l-1.907 13.9a.955.955 0 0 0 .814 1.074l22.658 3.109a.953.953 0 0 0 1.073-.815l1.907-13.9z"/>
    </g>
  </g>
  <g id="souris">
    <path id="corps" d="M233.706 670.676c-3.004-5.122-3.326-11.426-4.301-16.705-.72-3.89-3.33-7.206-4.927-10.797-1.586-3.569-3.502-7.412-4.652-10.753-1.038-3.015-2.232-6.532-2.25-9.296-.017-2.532.952-5.053 2.14-7.289 1.228-2.309 3.05-4.804 5.224-6.563 1.843-1.491 10.359-5.059 10.502-5.093.251-.062 4.916-1.093 6.869-1.234 2.346-.17 4.922-.525 7.209.218 2.889.938 7.794 3.065 10.127 5.41 2.23 2.242 3.018 6.416 3.87 8.66.586 1.547.961 3.176 1.239 4.807.288 1.684.908 3.742 1.306 5.435.398 1.693.004 3.761.478 5.693.478 1.95.972 4.09 1.572 5.872.555 1.652 1.475 3.413 2.023 4.822.464 1.194.748 2.457 1.262 3.631.601 1.37 1.823 3.067 2.342 4.593.497 1.46.557 3.035.774 4.562.236 1.657.772 3.654.64 5.383a12.976 12.976 0 0 1-1.429 4.99c-.964 1.837-2.731 4.357-4.351 6.031-1.554 1.606-3.514 2.55-5.518 3.539-2.025 1-4.373 1.796-6.633 2.459-2.28.668-5.039.771-7.032.765-1.82-.006-2.671.595-4.311-.084-1.598-.661-4.208-1.083-5.766-1.836-1.605-.776-3.349-2.483-4.479-3.537-1.013-.945-1.226-2.488-1.928-3.683z" fill="#474747"/>
    <path id="reflet" d="M271.371 651.987c.981 3.978 2.004 11.915-.933 15.741-2.969 3.869-13.428 10.04-12.909 8.052.381-1.462 6.085-4.281 10.577-9.724 3.154-3.823 3.265-14.069 3.265-14.069z" fill="#767676" fill-opacity=".439"/>
    <path id="separationTouche" d="M235.262 604.322c-.047.014 10.408 33.366 10.408 33.366" fill="#f0f0f0" stroke="#201e1e" stroke-width="1.27"/>
    <path id="roulette" d="M241.613 612.517a3.41 3.41 0 0 0-4.269-2.239 3.41 3.41 0 0 0-2.239 4.269l1.809 5.798a3.41 3.41 0 0 0 4.268 2.239 3.41 3.41 0 0 0 2.239-4.269l-1.808-5.798z"/>
  </g>
</svg>
