<svg class="smart" viewBox="0 0 121 144" xmlns="http://www.w3.org/2000/svg" fill-rule="evenodd" clip-rule="evenodd" stroke-linejoin="round" stroke-miterlimit="1.4142">
  <path id="corps" d="M63.749 1.661C62.953.144 61.074-.441 59.557.356L1.661 30.77c-1.517.797-2.102 2.676-1.305 4.192l56.104 106.8c.797 1.517 2.675 2.101 4.192 1.305l57.896-30.414c1.517-.797 2.102-2.676 1.305-4.193L63.749 1.661z" fill="#282828"/>
  <path id="ecran" d="M64.663 9.682L6.442 40.266l48.787 92.871 58.221-30.584L64.663 9.682z" fill="#696969"/>
  <path id="ecouteur" d="M37.867 17.349a.4236.4236 0 0 0-.572-.178l-9.156 4.809a.4248.4248 0 0 0-.178.573l.394.75c.109.207.365.287.573.178l9.155-4.809a.4236.4236 0 0 0 .178-.572l-.394-.751z" fill="#696969"/>
  <path id="home" d="M92.703 119.834c-.491-.935-1.648-1.295-2.583-.804l-8.085 4.247c-.935.491-1.295 1.648-.804 2.583.491.935 1.648 1.295 2.583.804l8.085-4.247c.935-.491 1.295-1.649.804-2.583z" fill="#696969"/>
  <path id="reflet" d="M8.979 45.096l104.471 57.457-58.221 30.584-46.25-88.041z" fill="#959595" fill-opacity=".3176"/>
</svg>
