<svg class="stylo" viewBox="0 0 119 359" xmlns="http://www.w3.org/2000/svg" fill-rule="evenodd" clip-rule="evenodd" stroke-linecap="round" stroke-linejoin="round" stroke-miterlimit="1.5">
  <path d="M95.814 343.526c2.318-3.508 15.05-7.282 18.747-5.951 3.698 1.332 5.758 10.43 3.439 13.938-2.318 3.508-13.653 8.442-17.351 7.111-3.698-1.331-7.154-11.59-4.835-15.098z" fill="#050486"/>
  <path d="M24.111 76.607L86.445 281.43" fill="none" stroke="#01004e" stroke-opacity=".976471" stroke-width="2.65"/>
  <path d="M36.474 74.757l78.087 262.749-19.306 6.02L15.213 77.939l21.261-3.182z" fill="#ccc" fill-opacity=".588235" stroke="#ffe3e3" stroke-opacity=".4" stroke-width=".13"/>
  <path d="M9.445.946c3.519 3.24 8.366 12.384 11.559 20.179 5.197 12.685 19.588 52.663 17.292 55-3.651 3.715-17.646 5.011-21.181 7.222-1.626 1.017 10.741 35 12.778 43.889.704 3.074.555 9.259-.556 9.444-1.111.185-4.901-5.108-6.111-8.333-3.333-8.889-10.555-33.704-13.889-45-2.224-7.54-4.814-15.463-6.111-22.778C1.994 53.618 1.837 46.31 1.56 39.458c-.27-6.661-1.237-13.704-1.515-20-.262-5.946.67-13.955 1.596-17.195C2.319-.113 7.628-.728 9.445.946z" fill="#050486"/>
  <path d="M17.397 31.858l13.429 42.899" fill="#191796" fill-opacity=".266667" stroke="#ffe3e3" stroke-opacity=".4" stroke-width="2.13"/>
</svg>
